<?xml version="1.0" encoding="UTF-8"?>
<svg id="Layer_1" data-name="Layer 1" xmlns="http://www.w3.org/2000/svg" xmlns:xlink="http://www.w3.org/1999/xlink" viewBox="0 0 408 354">
  <defs>
    <style>
      .cls-1 {
        fill: #00a0dc;
      }

      .cls-1, .cls-2, .cls-3 {
        stroke-width: 0px;
      }

      .cls-1, .cls-3 {
        fill-rule: evenodd;
      }

      .cls-4 {
        clip-path: url(#clippath);
      }

      .cls-2 {
        fill: none;
      }

      .cls-3 {
        fill: #0073bb;
      }
    </style>
    <clipPath id="clippath">
      <rect class="cls-2" width="408" height="354"/>
    </clipPath>
  </defs>
  <g class="cls-4">
    <g>
      <path class="cls-1" d="M200.05,278.66c2.27,1.4,5.13,1.4,7.39,0l129.31-67.22c1.75-.87,2.45-3,1.57-4.74l-63.8-130.31c-1.33-2.96-5.62-2.7-6.58.41l-15.45,48.08h-97.52l-15.45-48.08c-.96-3.1-5.25-3.37-6.58-.41l-63.8,130.31c-.88,1.74-.18,3.87,1.57,4.74l129.31,67.22Z"/>
      <path class="cls-3" d="M154.99,124.87h97.52l-45.37,125.66c-1.12,3.1-5.5,3.1-6.63,0l-45.52-125.67Z"/>
    </g>
  </g>
</svg>