<?xml version="1.0" encoding="UTF-8"?>
<svg id="Layer_1" data-name="Layer 1" xmlns="http://www.w3.org/2000/svg" xmlns:xlink="http://www.w3.org/1999/xlink" viewBox="0 0 990.87 355.07">
  <defs>
    <style>
      .cls-1 {
        fill: #00a0dc;
      }

      .cls-1, .cls-2, .cls-3, .cls-4 {
        stroke-width: 0px;
      }

      .cls-1, .cls-3 {
        fill-rule: evenodd;
      }

      .cls-5 {
        clip-path: url(#clippath);
      }

      .cls-2 {
        fill: none;
      }

      .cls-3 {
        fill: #0073bb;
      }

      .cls-4 {
        fill: #1c1e1f;
      }
    </style>
    <clipPath id="clippath">
      <rect class="cls-2" width="990.87" height="355.07"/>
    </clipPath>
  </defs>
  <g class="cls-5">
    <g>
      <g>
        <path class="cls-1" d="M199.47,279.01c2.27,1.4,5.13,1.4,7.39,0l129.31-67.22c1.75-.87,2.45-3,1.57-4.74l-63.8-130.31c-1.33-2.96-5.62-2.7-6.58.41l-15.45,48.08h-97.52l-15.45-48.08c-.96-3.1-5.25-3.37-6.58-.41l-63.8,130.31c-.88,1.74-.18,3.87,1.57,4.74l129.31,67.22Z"/>
        <path class="cls-3" d="M154.41,125.22h97.52s-45.37,125.66-45.37,125.66c-1.12,3.1-5.5,3.1-6.63,0l-45.52-125.67Z"/>
      </g>
      <path class="cls-4" d="M461.46,187.45c1.57,3.11,2.36,6.76,2.36,10.94,0,5.66-1.45,10.63-4.34,14.92-2.89,4.29-7.06,7.64-12.52,10.04-5.45,2.4-12.04,3.61-19.77,3.61s-14.02-1.16-19.54-3.49c-5.52-2.33-9.82-5.72-12.92-10.18-2.98-4.3-4.65-9.51-4.99-15.62-.02-.37.28-.69.65-.69h15.93c.33,0,.61.26.64.59.32,3.1,1.34,5.7,3.06,7.8,1.82,2.23,4.2,3.9,7.14,5,2.94,1.1,6.23,1.65,9.88,1.65s7.14-.57,10.02-1.72c2.88-1.15,5.13-2.75,6.76-4.81,1.63-2.06,2.47-4.47,2.5-7.24-.03-2.51-.77-4.6-2.22-6.25-1.45-1.65-3.46-3.03-6.06-4.15-2.59-1.12-5.62-2.11-9.07-2.99l-10.98-2.83c-7.95-2.04-14.23-5.15-18.83-9.31-4.6-4.16-6.91-9.7-6.91-16.62,0-5.69,1.55-10.67,4.64-14.94,3.09-4.27,7.31-7.6,12.66-9.97,5.34-2.37,11.39-3.56,18.15-3.56s12.86,1.19,18.03,3.56c5.17,2.37,9.23,5.66,12.19,9.85,2.83,4.02,4.35,8.61,4.55,13.77.01.37-.29.67-.65.67h-15.59c-.32,0-.59-.24-.64-.56-.54-3.85-2.37-6.86-5.47-9.05-3.25-2.29-7.47-3.44-12.66-3.44-3.65,0-6.77.55-9.38,1.65-2.61,1.1-4.6,2.59-5.99,4.48-1.38,1.89-2.09,4.04-2.12,6.46,0,2.01.46,3.76,1.39,5.23.93,1.48,2.19,2.73,3.79,3.75,1.6,1.02,3.38,1.88,5.33,2.57,1.95.69,3.91,1.27,5.89,1.74l9.05,2.26c3.65.85,7.16,2,10.54,3.44,3.38,1.45,6.41,3.27,9.1,5.47,2.69,2.2,4.82,4.86,6.39,7.97ZM545.89,152.14c-5.25,0-9.78,1.2-13.6,3.61-3.82,2.4-6.53,5.62-8.13,9.64h-.75c-1.38-4.08-3.76-7.31-7.14-9.69-3.38-2.37-7.52-3.56-12.42-3.56s-9,1.17-12.49,3.51c-3.37,2.26-5.82,5.37-7.34,9.32-.1.25-.33.42-.6.42h-.41v-9.29c0-.36-.29-.65-.65-.65h-15.02c-.36,0-.65.29-.65.65v68.74c0,.36.29.65.65.65h15.77c.36,0,.65-.29.65-.65v-43.38c0-2.99.6-5.6,1.79-7.85,1.19-2.25,2.8-3.99,4.81-5.23,2.01-1.24,4.24-1.86,6.69-1.86,3.61,0,6.54,1.12,8.79,3.35,2.25,2.23,3.37,5.22,3.37,8.96v46.02c0,.36.29.65.65.65h15.44c.36,0,.65-.29.65-.65v-44.51c0-4.08,1.15-7.41,3.46-9.97,2.31-2.56,5.52-3.84,9.64-3.84,3.46,0,6.38,1.04,8.77,3.13,2.39,2.09,3.58,5.38,3.58,9.88v45.31c0,.36.29.65.65.65h15.82c.36,0,.65-.29.65-.65v-47.95c0-8.08-2.11-14.22-6.32-18.43-4.21-4.21-9.65-6.32-16.31-6.32ZM713.28,212.09c-.08-.35-.42-.57-.77-.49-.39.09-.86.18-1.42.27-.9.16-1.88.24-2.95.24-1.41,0-2.7-.22-3.87-.66-1.16-.44-2.1-1.26-2.8-2.47-.71-1.21-1.06-2.96-1.06-5.26v-37.43h13.64c.36,0,.65-.29.65-.65v-9.47c0-.36-.29-.65-.65-.65h-13.64v-19.14c0-.36-.29-.65-.65-.65h-15.77c-.36,0-.65.29-.65,3.08v14.9s0,0,0,0v1.76s0,0,0,0c-.63-.03-1.22-.04-1.76-.04-.06,0-.12,0-.19,0-1.89.01-3.96.14-5.77.73-1.83.59-3.58,1.42-5.2,2.45-1.32.84-2.67,1.82-3.77,2.94-1.05,1.08-1.92,2.34-2.76,3.58h-.75v-9.05c0-.36-.29-.65-.65-.65h-15.25c-.36,0-.65.29-.65.65v68.74c0,.36.29.65.65.65h15.77c.36,0,.65-.29.65-.65v-41.92c0-3.08.71-5.8,2.12-8.16,1.41-2.36,3.76-5.48,6.22-6.82,2.47-1.34,5.26-1.73,8.37-1.73.97,0,1.97.05,2.99.14v42.62c-.03,2.09.95,5.86,2.95,8.88,2,3.02,4.71,5.24,8.13,6.67,3.43,1.43,7.27,2.08,11.55,1.96,2.42-.06,4.47-.28,6.15-.66,1.36-.31,2.47-.59,3.33-.85.32-.1.51-.43.44-.75l-2.61-12.12ZM750.32,147.26c4.05-2.62,8.7-3.94,13.95-3.94,2.95,0,5.71.4,8.27,1.2,2.56.8,4.85,1.99,6.86,3.56,2.01,1.57,3.69,3.48,5.04,5.73,1.27,2.11,2.16,4.5,2.68,7.18.06.3.32.53.63.53h16.35c.4,0,.7-.35.64-.74-.76-5.07-2.26-9.61-4.49-13.61-2.34-4.2-5.32-7.75-8.93-10.65-3.61-2.91-7.73-5.11-12.35-6.62-4.62-1.51-9.62-2.26-14.99-2.26-8.42,0-15.96,1.96-22.63,5.89-6.66,3.93-11.93,9.59-15.79,16.99-3.87,7.4-5.8,16.3-5.8,26.7s1.92,19.26,5.75,26.68c3.83,7.42,9.08,13.09,15.74,17.02,6.66,3.93,14.24,5.89,22.72,5.89,5.75,0,10.98-.86,15.7-2.57,4.71-1.71,8.83-4.1,12.35-7.17,3.52-3.06,6.37-6.61,8.56-10.63,2.06-3.8,3.45-7.86,4.15-12.17.06-.39-.24-.75-.64-.75l-16.35-.09c-.31,0-.57.22-.63.52-.55,2.62-1.48,4.96-2.79,7.02-1.4,2.2-3.11,4.05-5.14,5.56-2.03,1.51-4.31,2.65-6.83,3.42-2.53.77-5.24,1.15-8.13,1.15-5.22,0-9.84-1.28-13.88-3.84-4.04-2.56-7.21-6.36-9.52-11.41s-3.46-11.26-3.46-18.64,1.15-13.41,3.44-18.45c2.29-5.04,5.47-8.88,9.52-11.5ZM876.77,156.13v68.71c0,.36-.29.65-.65.65h-15.49c-.36,0-.65-.29-.65-.65v-10.11c0-.36-.29-.65-.65-.65-.24,0-.45.13-.57.34-.87,1.66-2.08,3.41-3.64,5.24-1.67,1.96-3.87,3.64-6.6,5.02-2.73,1.38-6.17,2.07-10.32,2.07-5.69,0-10.78-1.46-15.27-4.38-4.49-2.92-8.05-7.17-10.65-12.73-2.61-5.56-3.91-12.32-3.91-20.27s1.33-14.84,3.98-20.39c2.66-5.55,6.25-9.74,10.77-12.59,4.53-2.84,9.57-4.27,15.13-4.27,4.24,0,7.73.72,10.46,2.14,2.73,1.43,4.9,3.14,6.51,5.14,1.6,2,2.84,3.87,3.72,5.63h.71v-8.92c0-.36.29-.65.65-.65h15.82c.36,0,.65.29.65.65ZM859.99,189.28c0-4.68-.65-8.75-1.96-12.21-1.3-3.46-3.22-6.14-5.75-8.06-2.53-1.92-5.63-2.88-9.31-2.88s-6.98.99-9.52,2.97c-2.55,1.98-4.46,4.71-5.75,8.2-1.29,3.49-1.93,7.48-1.93,11.97s.65,8.56,1.96,12.09c1.3,3.54,3.24,6.32,5.8,8.34,2.56,2.03,5.71,3.04,9.45,3.04s6.69-.98,9.24-2.95c2.55-1.96,4.48-4.71,5.8-8.23,1.32-3.52,1.98-7.62,1.98-12.3ZM640.55,156.13v68.71c0,.36-.29.65-.65.65h-15.49c-.36,0-.65-.29-.65-.65v-10.11c0-.36-.29-.65-.65-.65-.24,0-.45.13-.57.34-.87,1.66-2.08,3.41-3.64,5.24-1.67,1.96-3.87,3.64-6.6,5.02-2.73,1.38-6.17,2.07-10.32,2.07-5.69,0-10.78-1.46-15.27-4.38-4.49-2.92-8.05-7.17-10.65-12.73-2.61-5.56-3.91-12.32-3.91-20.27s1.33-14.84,3.98-20.39c2.66-5.55,6.25-9.74,10.77-12.59,4.53-2.84,9.57-4.27,15.13-4.27,4.24,0,7.73.72,10.46,2.14,2.73,1.43,4.9,3.14,6.51,5.14,1.6,2,2.84,3.87,3.72,5.63h.71v-8.92c0-.36.29-.65.65-.65h15.82c.36,0,.65.29.65.65ZM623.77,189.28c0-4.68-.65-8.75-1.96-12.21-1.3-3.46-3.22-6.14-5.75-8.06-2.53-1.92-5.63-2.88-9.31-2.88s-6.98.99-9.52,2.97c-2.55,1.98-4.46,4.71-5.75,8.2-1.29,3.49-1.93,7.48-1.93,11.97s.65,8.56,1.96,12.09c1.3,3.54,3.24,6.32,5.8,8.34,2.56,2.03,5.71,3.04,9.45,3.04s6.69-.98,9.24-2.95c2.55-1.96,4.48-4.71,5.8-8.23,1.32-3.52,1.98-7.62,1.98-12.3ZM922.42,224.21l-2.61-12.12c-.08-.35-.42-.57-.77-.49-.39.09-.86.18-1.42.27-.9.16-1.88.24-2.95.24-1.41,0-2.7-.22-3.87-.66-1.16-.44-2.1-1.26-2.8-2.47-.71-1.21-1.06-2.96-1.06-5.26v-37.43h13.64c.36,0,.65-.24.65-.53v-9.77c0-.29-.29-.53-.65-.53h-13.64v-19.07c0-.36-.29-.65-.65-.65h-15.77c-.36,0-.65.29-.65.65v19.07h-9.63c-.36,0-.65.24-.65.53v9.77c0,.29.29.53.65.53h9.63v40.26c-.03,4.53.95,8.3,2.95,11.31,2,3.02,4.71,5.24,8.13,6.67,3.43,1.43,7.27,2.08,11.55,1.96,2.42-.06,4.47-.28,6.15-.66,1.36-.31,2.47-.59,3.33-.85.32-.1.51-.43.44-.75Z"/>
    </g>
  </g>
</svg>